<svg xmlns="http://www.w3.org/2000/svg" width="30" height="33" viewBox="0 0 30 33">
    <path fill="#00466F" fill-rule="evenodd" d="M10.24 11.232a2.26 2.26 0 0 1 2.253 2.266 2.26 2.26 0 0 1-2.253 2.265 2.26 2.26 0 0 1-2.253-2.265 2.26 2.26 0 0 1 2.253-2.266zm9.068 0a2.26 2.26 0 0 1 2.252 2.266 2.26 2.26 0 0 1-2.252 2.265 2.26 2.26 0 0 1-2.253-2.265 2.26 2.26 0 0 1 2.253-2.266zM9.19 2.36H20.81c.267-.316.69-.71 1.277-1.1C23.124.57 24.377.12 25.847.02L26.15 0l.147.266c.032.057.088.162.165.314.127.252.269.544.42.877.434.946.867 2.02 1.271 3.203 1.297 3.797 2.006 7.813 1.818 11.838-.394 8.437-6.887 15.832-14.215 16.456V33h-.478c-.054 0-.095-.001-.184-.004l-.083-.004c-.028 0-.049.002-.103.004h-.028a4.083 4.083 0 0 1-.156.004h-.477v-.046C6.916 32.33.424 24.936.03 16.498c-.188-4.025.52-8.04 1.818-11.838a34.525 34.525 0 0 1 1.27-3.203 24.446 24.446 0 0 1 .586-1.19L3.85 0l.302.02c1.47.099 2.723.55 3.761 1.24.587.39 1.01.783 1.277 1.1zm16.413-1.355c-1.165.125-2.16.503-2.992 1.056-.359.239-.662.494-.91.747a3.059 3.059 0 0 0-.275.312l-.142.2H8.715l-.142-.2a3.057 3.057 0 0 0-.275-.312 5.643 5.643 0 0 0-.91-.747c-.833-.554-1.827-.931-2.992-1.056a19.251 19.251 0 0 0-.41.854c-.421.918-.842 1.963-1.235 3.113C1.49 8.662.8 12.561.983 16.453c.38 8.137 6.763 15.248 13.762 15.572l.197.009a4.374 4.374 0 0 1 .118 0l.195-.01c6.999-.323 13.381-7.434 13.762-15.571.182-3.892-.507-7.79-1.768-11.482a33.567 33.567 0 0 0-1.234-3.113 23.49 23.49 0 0 0-.41-.854zM14.886 18.033c1.436.425.75 2.76.308 3.759-.14.315-.308.32-.308.32s-.17-.005-.308-.32c-.441-1-1.128-3.334.308-3.76zm-4.646-7.815c-1.798 0-3.261 1.471-3.261 3.28 0 1.808 1.463 3.28 3.261 3.28s3.261-1.472 3.261-3.28c0-1.809-1.463-3.28-3.261-3.28zm0 7.519c-2.325 0-4.215-1.902-4.215-4.24 0-2.337 1.89-4.239 4.215-4.239s4.215 1.902 4.215 4.24c0 2.337-1.89 4.239-4.215 4.239zm9.068-7.519c-1.799 0-3.261 1.471-3.261 3.28 0 1.808 1.462 3.28 3.26 3.28 1.799 0 3.262-1.472 3.262-3.28 0-1.809-1.463-3.28-3.261-3.28zm0 7.519c-2.325 0-4.216-1.902-4.216-4.24 0-2.337 1.89-4.239 4.216-4.239 2.324 0 4.215 1.902 4.215 4.24 0 2.337-1.89 4.239-4.215 4.239zm.846-11.714c.779 0 1.622.107 2.513.372 4.525 1.345 6.49 9.07 1.551 14.037-4.532 4.558-9.346 7.358-9.346 7.358s-4.8-2.8-9.332-7.358C.6 15.465 2.567 7.74 7.09 6.395a8.791 8.791 0 0 1 2.514-.372c3.126 0 5.216 1.717 5.275 1.766.059-.049 2.149-1.766 5.275-1.766zm0 .96c-2.762 0-4.649 1.531-4.668 1.546l-.607.502-.608-.502c-.018-.015-1.905-1.546-4.667-1.546-.747 0-1.5.112-2.243.332-1.656.493-2.968 2.064-3.51 4.202-.739 2.926.145 6.004 2.364 8.236 3.568 3.588 7.348 6.091 8.658 6.914 1.312-.822 5.102-3.326 8.67-6.914 2.22-2.232 3.103-5.31 2.364-8.236-.541-2.138-1.854-3.709-3.51-4.202a7.871 7.871 0 0 0-2.243-.332z"/>
</svg>
