<svg xmlns="http://www.w3.org/2000/svg" width="66" height="51" viewBox="0 0 66 51">
    <g fill="none" fill-rule="evenodd" transform="translate(1 1)">
        <path stroke="#0F80DE" stroke-width="1.6" d="M38 26v14a3 3 0 0 1-3 3H15.017L8.63 48.179A1 1 0 0 1 7 47.402V43H3a3 3 0 0 1-3-3V20a3 3 0 0 1 3-3h23.451"/>
        <rect width="14" height="1.6" x="7" y="23" fill="#0F80DE" rx=".8"/>
        <rect width="24" height="1.6" x="7" y="29" fill="#0F80DE" rx=".8"/>
        <rect width="24" height="1.6" x="7" y="35" fill="#0F80DE" rx=".8"/>
        <path stroke="#0F80DE" stroke-width="1.6" d="M30 0h30a4 4 0 0 1 4 4v18a4 4 0 0 1-4 4h-3v4.399a1 1 0 0 1-1.63.776L49 26H30a4 4 0 0 1-4-4V4a4 4 0 0 1 4-4z"/>
        <path fill="#0F80DE" fill-rule="nonzero" d="M49.44 16l-.327-3.487.109-.108c1.394-.029 2.465-.316 3.213-.861.748-.545 1.122-1.284 1.122-2.217 0-.79-.29-1.453-.871-1.991-.581-.539-1.351-.808-2.31-.808-1.467 0-2.788.675-3.965 2.024L45.3 7.497C46.694 5.832 48.4 5 50.42 5c1.452 0 2.629.402 3.53 1.205.9.804 1.35 1.837 1.35 3.1 0 1.278-.421 2.278-1.264 3.003-.842.725-1.931 1.18-3.268 1.367L50.551 16h-1.112zM49 19a1 1 0 1 1 2 0 1 1 0 0 1-2 0zm-12 0a1 1 0 1 1 2 0 1 1 0 0 1-2 0zm6 0a1 1 0 1 1 2 0 1 1 0 0 1-2 0z"/>
    </g>
</svg>
