<svg xmlns="http://www.w3.org/2000/svg" xmlns:xlink="http://www.w3.org/1999/xlink" width="50" height="50" viewBox="0 0 50 50">
    <defs>
        <path id="a" d="M35.125 24.79h-6.25c-.318-1.179-1.276-2.1-2.5-2.407v-8.54c0-.467-.392-.843-.875-.843s-.875.376-.875.842v8.54C23.12 22.76 22 24.067 22 25.633 22 27.489 23.57 29 25.5 29c1.626 0 2.985-1.078 3.376-2.526h6.249c.483 0 .875-.377.875-.842 0-.466-.391-.843-.875-.843zM25.5 27.315c-.965 0-1.75-.756-1.75-1.684 0-.93.785-1.685 1.75-1.685s1.75.756 1.75 1.685c0 .928-.785 1.684-1.75 1.684z"/>
        <path id="b" d="M43.202 8.395l3.531 3.522a.863.863 0 0 0 1.22 0 6.976 6.976 0 0 0 0-9.875c-2.731-2.723-7.173-2.723-9.903 0a.856.856 0 0 0 0 1.215l3.933 3.922-1.465 1.46A23.218 23.218 0 0 0 25 2.712 23.218 23.218 0 0 0 9.483 8.64L8.017 7.179l3.933-3.922a.856.856 0 0 0 0-1.215c-2.73-2.723-7.172-2.723-9.902 0a6.976 6.976 0 0 0 0 9.875.863.863 0 0 0 1.219 0l3.531-3.522 1.445 1.44c-4.034 4.177-6.522 9.848-6.522 16.09 0 8.51 4.619 15.962 11.485 20.004l-2.61 2.603a.861.861 0 1 0 1.22 1.216l2.973-2.966a23.187 23.187 0 0 0 10.21 2.358c3.661 0 7.126-.85 10.211-2.358l2.975 2.966a.861.861 0 0 0 1.219-1.216l-2.61-2.603c6.865-4.042 11.484-11.493 11.484-20.004 0-6.242-2.488-11.913-6.522-16.09l1.446-1.44zm3.53-5.138a5.262 5.262 0 0 1 .56 6.787l-7.364-7.345a5.296 5.296 0 0 1 6.804.558zM2.707 10.043a5.26 5.26 0 0 1 .56-6.786c1.85-1.845 4.744-2.03 6.804-.558l-7.364 7.344zM25 47.421c-11.885 0-21.555-9.643-21.555-21.496C3.445 14.073 13.115 4.43 25 4.43s21.554 9.643 21.554 21.495c0 11.853-9.669 21.496-21.554 21.496z"/>
        <path id="c" d="M26 9a1 1 0 0 0 1-1V7a1 1 0 1 0-2 0v1a1 1 0 0 0 1 1z"/>
        <path id="d" d="M26 43a1 1 0 0 0-1 1v1a1 1 0 1 0 2 0v-1a1 1 0 0 0-1-1z"/>
        <path id="e" d="M43 27h1a1 1 0 1 0 0-2h-1a1 1 0 1 0 0 2z"/>
        <path id="f" d="M7 25H6a1 1 0 1 0 0 2h1a1 1 0 1 0 0-2z"/>
        <path id="g" d="M38.739 12.217l-.522.522a.738.738 0 1 0 1.044 1.045l.522-.523a.738.738 0 1 0-1.044-1.044z"/>
        <path id="h" d="M11.739 38.216l-.522.523a.738.738 0 1 0 1.044 1.045l.522-.523a.738.738 0 1 0-1.044-1.045z"/>
        <path id="i" d="M39.261 38.217a.738.738 0 1 0-1.044 1.044l.522.523a.737.737 0 0 0 1.044 0 .738.738 0 0 0 0-1.045l-.522-.522z"/>
        <path id="j" d="M12.261 12.217a.738.738 0 1 0-1.044 1.044l.522.523a.737.737 0 0 0 1.044 0 .738.738 0 0 0 0-1.045l-.522-.522z"/>
    </defs>
    <g fill="#0F80DE" fill-rule="nonzero">
        <g>
            <use xlink:href="#a"/>
            <use xlink:href="#a"/>
        </g>
        <g>
            <use xlink:href="#b"/>
            <use xlink:href="#b"/>
        </g>
        <g>
            <use xlink:href="#c"/>
            <use xlink:href="#c"/>
        </g>
        <g>
            <use xlink:href="#d"/>
            <use xlink:href="#d"/>
        </g>
        <g>
            <use xlink:href="#e"/>
            <use xlink:href="#e"/>
        </g>
        <g>
            <use xlink:href="#f"/>
            <use xlink:href="#f"/>
        </g>
        <g>
            <use xlink:href="#g"/>
            <use xlink:href="#g"/>
        </g>
        <g>
            <use xlink:href="#h"/>
            <use xlink:href="#h"/>
        </g>
        <g>
            <use xlink:href="#i"/>
            <use xlink:href="#i"/>
        </g>
        <g>
            <use xlink:href="#j"/>
            <use xlink:href="#j"/>
        </g>
    </g>
</svg>
