<svg xmlns="http://www.w3.org/2000/svg" xmlns:xlink="http://www.w3.org/1999/xlink" width="61" height="50" viewBox="0 0 61 50">
    <defs>
        <path id="a" d="M52.826 34.932c.6 0 1.088.486 1.088 1.083a.731.731 0 1 0 1.463 0 2.54 2.54 0 0 0-1.82-2.426v-.231a.731.731 0 1 0-1.462 0v.231a2.54 2.54 0 0 0-1.814 2.425 2.548 2.548 0 0 0 2.545 2.545c.6 0 1.087.486 1.087 1.083a1.087 1.087 0 0 1-2.17 0 .731.731 0 1 0-1.463 0 2.54 2.54 0 0 0 1.814 2.426v.231a.731.731 0 1 0 1.463 0v-.231a2.54 2.54 0 0 0 1.819-2.426 2.55 2.55 0 0 0-2.55-2.545 1.084 1.084 0 0 1-1.084-1.084c.001-.596.487-1.081 1.084-1.081z"/>
        <path id="b" d="M52.829 30C48.512 30 45 33.512 45 37.829c0 4.316 3.512 7.828 7.829 7.828 4.316 0 7.828-3.512 7.828-7.828 0-4.317-3.511-7.829-7.828-7.829zm0 14.196a6.374 6.374 0 0 1-6.367-6.367 6.374 6.374 0 0 1 6.367-6.367 6.374 6.374 0 0 1 6.367 6.367 6.374 6.374 0 0 1-6.367 6.367z"/>
    </defs>
    <g fill="none" fill-rule="evenodd">
        <path fill="#0F80DE" fill-rule="nonzero" d="M52.012 21.37a.725.725 0 0 0 .214.103.757.757 0 0 0 .247.033c.023 0 .045.002.068 0 .011-.002.022 0 .034-.001.07-.01.137-.03.199-.057.006-.003.011-.008.018-.01a.716.716 0 0 0 .18-.124c.008-.007.018-.01.026-.017l3.306-3.342a.551.551 0 0 0-.066-.855.775.775 0 0 0-.985.073l-1.783 1.802c.1-2.422-.62-4.735-.654-4.844-1.48-5.354-5.871-9.266-10.857-10.26a12.449 12.449 0 0 0-5.156.048c-.34.076-.56.353-.534.645a.564.564 0 0 0 .017.094c.09.324.466.519.841.436a10.918 10.918 0 0 1 4.797.02c4.37.987 8.21 4.528 9.54 9.339.01.03.753 2.419.602 4.74l-1.733-2.404c-.204-.282-.634-.362-.961-.181-.328.18-.428.555-.226.838l2.731 3.79a.649.649 0 0 0 .135.134z"/>
        <path stroke="#0F80DE" stroke-width="1.6" d="M4 .8A3.2 3.2 0 0 0 .8 4v42A3.2 3.2 0 0 0 4 49.2h30a3.2 3.2 0 0 0 3.2-3.2V12.836a3.2 3.2 0 0 0-.979-2.304l-9.163-8.836A3.2 3.2 0 0 0 24.837.8H4z"/>
        <rect width="14" height="1.6" x="7" y="15" fill="#0F80DE" rx=".8"/>
        <rect width="24" height="1.6" x="7" y="21" fill="#0F80DE" rx=".8"/>
        <rect width="24" height="1.6" x="7" y="27" fill="#0F80DE" rx=".8"/>
        <rect width="24" height="1.6" x="7" y="33" fill="#0F80DE" rx=".8"/>
        <path fill="#0F80DE" d="M32.74 37.314L28.864 43.2l-2.733-2.373a.666.666 0 0 0-.975.102.76.76 0 0 0 .097 1.03l3.313 2.876a.671.671 0 0 0 .534.16.691.691 0 0 0 .473-.307l4.302-6.536a.759.759 0 0 0-.173-1.02.668.668 0 0 0-.964.183z"/>
        <g fill="#0F80DE" fill-rule="nonzero">
            <use xlink:href="#a"/>
            <use xlink:href="#a"/>
        </g>
        <g fill="#0F80DE" fill-rule="nonzero">
            <use xlink:href="#b"/>
            <use xlink:href="#b"/>
        </g>
        <path stroke="#0F80DE" stroke-width="1.6" d="M26 1v9a2 2 0 0 0 2 2h9"/>
    </g>
</svg>
