<svg xmlns="http://www.w3.org/2000/svg" width="64" height="50" viewBox="0 0 64 50">
    <g fill="#0F80DE" fill-rule="evenodd">
        <path fill-rule="nonzero" d="M54.2 24v21a3.2 3.2 0 0 1-3.2 3.2H5A3.2 3.2 0 0 1 1.8 45V16A3.2 3.2 0 0 1 5 12.8h34v-1.6H5A4.8 4.8 0 0 0 .2 16v29A4.8 4.8 0 0 0 5 49.8h46a4.8 4.8 0 0 0 4.8-4.8V24h-1.6z"/>
        <path fill-rule="nonzero" d="M48.645 40.235c-.015 1.01-.556 1.866-1.446 2.347-.946.511-2.19.299-2.993-.452a.824.824 0 0 0-1.146 0c-.82.767-2.027.938-2.993.452-.897-.452-1.431-1.36-1.446-2.347-.034-2.244 2.762-3.465 4.44-1.895.33.31.815.31 1.145 0 .82-.767 2.027-.938 2.993-.452.897.452 1.431 1.36 1.446 2.347.016 1.044 1.637 1.045 1.62 0-.024-1.593-.905-3.07-2.338-3.791-1.617-.815-3.558-.475-4.867.75h1.146c-1.338-1.253-3.218-1.521-4.867-.75-1.442.674-2.315 2.234-2.339 3.79-.024 1.582.939 3.087 2.339 3.792 1.618.815 3.558.475 4.867-.75H43.06c1.339 1.253 3.218 1.52 4.867.75 1.443-.674 2.315-2.234 2.339-3.791.016-1.046-1.605-1.044-1.62 0zM8.8 16.2h6a1.8 1.8 0 0 1 1.8 1.8v5a1.8 1.8 0 0 1-1.8 1.8h-6A1.8 1.8 0 0 1 7 23v-5a1.8 1.8 0 0 1 1.8-1.8zm0 1.6a.2.2 0 0 0-.2.2v5c0 .11.09.2.2.2h6a.2.2 0 0 0 .2-.2v-5a.2.2 0 0 0-.2-.2h-6z"/>
        <rect width="7" height="1.6" x="7" y="31" rx=".8"/>
        <rect width="16" height="1.6" x="7" y="40" rx=".8"/>
        <rect width="7" height="1.6" x="16" y="31" rx=".8"/>
        <rect width="7" height="1.6" x="25" y="31" rx=".8"/>
        <path fill-rule="nonzero" d="M51 25.8c7.07 0 12.8-5.73 12.8-12.8S58.07.2 51 .2 38.2 5.93 38.2 13 43.93 25.8 51 25.8zm0-1.6c-6.186 0-11.2-5.014-11.2-11.2 0-6.186 5.014-11.2 11.2-11.2 6.186 0 11.2 5.014 11.2 11.2 0 6.186-5.014 11.2-11.2 11.2z"/>
        <g transform="translate(44 4)">
            <path fill-rule="nonzero" d="M3.2 5.2V4a3.8 3.8 0 1 1 7.6 0v1.2h.2A2.8 2.8 0 0 1 13.8 8v5a2.8 2.8 0 0 1-2.8 2.8H3A2.8 2.8 0 0 1 .2 13V8A2.8 2.8 0 0 1 3 5.2h.2zm1.6 0h4.4V4a2.2 2.2 0 1 0-4.4 0v1.2zM3 6.8A1.2 1.2 0 0 0 1.8 8v5A1.2 1.2 0 0 0 3 14.2h8a1.2 1.2 0 0 0 1.2-1.2V8A1.2 1.2 0 0 0 11 6.8H3z"/>
            <circle cx="7" cy="10.5" r="1.5"/>
        </g>
    </g>
</svg>
